<svg xmlns="http://www.w3.org/2000/svg" viewBox="0 0 512 512" width="512" height="512">
<rect width="512" height="512" fill="black"/>
<path d="M 258 32 L 249 41 L 228 116 L 180 55 L 168 50 L 176 137 L 108 99 L 97 97 L 99 108 L 137 176 L 59 167 L 48 170 L 116 228 L 32 254 L 36 261 L 116 284 L 51 335 L 50 343 L 137 335 L 99 403 L 97 414 L 108 413 L 176 374 L 168 461 L 173 463 L 228 395 L 255 480 L 261 475 L 283 396 L 332 457 L 343 462 L 336 374 L 404 413 L 415 414 L 374 336 L 462 343 L 457 332 L 396 283 L 480 257 L 471 249 L 395 228 L 463 173 L 457 167 L 374 176 L 415 98 L 403 99 L 336 138 L 343 50 L 335 51 L 284 116 Z" fill="white"/>
<path d="M 238 292 L 239 291 L 239 289 L 242 286 L 254 286 L 255 285 L 256 285 L 257 286 L 269 286 L 272 289 L 271 290 L 272 291 L 272 292 L 271 293 L 272 294 L 272 297 L 270 299 L 269 299 L 268 300 L 267 299 L 266 300 L 264 300 L 263 301 L 259 301 L 258 300 L 256 300 L 255 301 L 254 300 L 252 300 L 251 301 L 250 301 L 249 300 L 248 300 L 247 301 L 246 300 L 244 300 L 243 299 L 240 299 L 239 298 L 239 296 L 238 295 L 239 294 L 239 293 Z" fill="white"/>
<path d="M 308 224 L 314 224 L 315 225 L 316 225 L 317 226 L 318 226 L 321 229 L 321 232 L 322 233 L 322 237 L 321 238 L 321 239 L 320 240 L 319 240 L 315 244 L 312 244 L 311 245 L 310 245 L 309 244 L 307 244 L 305 242 L 303 242 L 302 241 L 303 240 L 303 239 L 301 237 L 301 236 L 300 235 L 300 232 L 301 231 L 301 230 L 303 228 L 303 227 L 304 226 L 305 226 L 306 225 L 307 225 Z" fill="white"/>
<path d="M 249 225 L 253 225 L 254 224 L 256 224 L 257 225 L 258 224 L 259 225 L 262 225 L 263 226 L 263 241 L 264 242 L 263 243 L 264 244 L 264 248 L 265 249 L 264 250 L 264 255 L 265 256 L 264 257 L 264 260 L 265 261 L 265 267 L 264 268 L 264 269 L 263 270 L 262 270 L 261 269 L 260 270 L 258 270 L 257 269 L 256 269 L 255 270 L 254 269 L 253 269 L 252 270 L 250 270 L 249 269 L 247 269 L 246 268 L 246 261 L 247 260 L 246 259 L 246 254 L 247 253 L 247 251 L 246 250 L 246 247 L 247 246 L 246 245 L 246 243 L 247 242 L 247 229 L 248 228 L 248 226 Z" fill="white"/>
<path d="M 196 224 L 201 224 L 202 225 L 204 225 L 205 226 L 206 226 L 208 228 L 208 229 L 209 229 L 210 230 L 210 235 L 209 236 L 209 239 L 208 240 L 208 241 L 207 242 L 206 242 L 205 243 L 204 243 L 203 244 L 202 244 L 201 245 L 199 245 L 198 244 L 195 244 L 193 242 L 193 241 L 192 241 L 189 238 L 189 236 L 188 235 L 188 233 L 189 232 L 189 230 L 190 229 L 190 228 L 192 226 L 193 226 L 194 225 L 195 225 Z" fill="white"/>
</svg>